<svg id="Layer_1" data-name="Layer 1" xmlns="http://www.w3.org/2000/svg" viewBox="0 0 253.86 253.57"><title>image42443 [преобразованный]</title><path d="M198.05,178.32Q250.91,125.55,303.7,72.73c14.13,0,28.26.42,42.39.27q21.24,21.18,42.41,42.41c-10.75,10.52-21.14,21.41-32,31.78-10.46-10.63-21.05-21.14-31.61-31.66q-41.12,41-82.18,82.14c-.64.69-1.25,1.41-1.85,2.14,10.64,10.43,21.06,21.07,31.65,31.54q-16.08,16.17-32.26,32.27Q220,243.4,199.79,223.22c-.75-.91-2.13-1.69-1.81-3.08C198.05,206.2,197.92,192.26,198.05,178.32Z" transform="translate(-197.93 -72.73)" style="fill:#1e8ece"/><path d="M409.6,136.49c14,14,28,27.92,41.94,42,.45,14.32.17,28.73.14,43.07q-52.53,52.21-104.79,104.7c-14.25.22-28.47-.37-42.71-.22q-21.06-21-42-42,15.84-15.9,31.73-31.75Q309.71,268,325.5,283.87q41.88-41.87,83.76-83.74c-10.53-10.57-21.12-21.06-31.61-31.66Q393.63,152.48,409.6,136.49Z" transform="translate(-197.93 -72.73)" style="fill:#0b4680"/><path d="M323.47,155.88Q345.1,177.39,366.63,199,345.3,220.3,324,241.63q-21.54-21.57-43.11-43.11C295.05,184.28,309.31,170.13,323.47,155.88Z" transform="translate(-197.93 -72.73)" style="fill:#0b4680"/></svg>